<svg width="49" height="48" viewBox="0 0 49 48" fill="none" xmlns="http://www.w3.org/2000/svg">
<path fill-rule="evenodd" clip-rule="evenodd" d="M39.3809 9.10313C37.4394 7.16069 35.1329 5.62145 32.5941 4.57402C30.0554 3.52659 27.3345 2.99165 24.5881 3C13.0625 3 3.68 12.3356 3.67531 23.8125C3.67021 27.467 4.63353 31.0576 6.46719 34.2188L3.5 45L14.5859 42.1059C17.6546 43.7684 21.0897 44.6384 24.5797 44.6372H24.5881C36.1128 44.6372 45.4944 35.3006 45.5 23.8247C45.507 21.0877 44.9696 18.3767 43.9191 15.8493C42.8686 13.322 41.3259 11.0288 39.3809 9.10313ZM24.5881 41.1244H24.5806C21.4694 41.1253 18.4148 40.2927 15.7344 38.7131L15.0997 38.3381L8.52125 40.0556L10.2772 33.6722L9.86375 33.0159C8.12411 30.2617 7.20242 27.0701 7.20594 23.8125C7.20594 14.2753 15.0069 6.51563 24.5947 6.51563C29.1941 6.50742 33.6083 8.32644 36.8666 11.5726C40.125 14.8188 41.9604 19.2263 41.9694 23.8256C41.9656 33.3638 34.1684 41.1244 24.5881 41.1244ZM34.1216 28.1691C33.5994 27.9084 31.0278 26.6503 30.5516 26.4769C30.0753 26.3034 29.7238 26.2163 29.3759 26.7375C29.0281 27.2588 28.0259 28.425 27.7212 28.7766C27.4166 29.1281 27.1119 29.1666 26.5897 28.9059C26.0675 28.6453 24.3828 28.0969 22.3869 26.325C20.8334 24.9459 19.7853 23.2434 19.4806 22.7231C19.1759 22.2028 19.4478 21.9206 19.7094 21.6619C19.9447 21.4284 20.2316 21.0544 20.4931 20.7506C20.7547 20.4469 20.8419 20.2294 21.0153 19.8825C21.1887 19.5356 21.1025 19.2319 20.9722 18.9722C20.8419 18.7125 19.7966 16.1522 19.3616 15.1106C18.9369 14.0963 18.5066 14.2341 18.1859 14.2181C17.8812 14.2031 17.5297 14.1994 17.1838 14.1994C16.9193 14.2063 16.6591 14.2676 16.4194 14.3795C16.1797 14.4915 15.9657 14.6516 15.7906 14.85C15.3116 15.3713 13.9616 16.6313 13.9616 19.1888C13.9616 21.7463 15.8366 24.2213 16.0953 24.5681C16.3541 24.915 19.7797 30.1678 25.0212 32.4206C25.9946 32.8375 26.989 33.203 28.0006 33.5156C29.2522 33.9113 30.3913 33.8559 31.2913 33.7219C32.2953 33.5728 34.385 32.4638 34.8191 31.2488C35.2531 30.0338 35.2541 28.9931 35.1238 28.7766C34.9934 28.56 34.6447 28.4288 34.1216 28.1691Z" fill="white"/>
</svg>
