<svg width="40" height="40" viewBox="0 0 40 40" fill="none" xmlns="http://www.w3.org/2000/svg">
<path d="M24.1288 18.281C24.2434 18.8868 24.3252 19.4925 24.3252 20.2782C24.3252 27.1378 19.7249 32 12.8 32C6.16974 32 0.799988 26.6303 0.799988 20C0.799988 13.3697 6.16974 8 12.8 8C16.0415 8 18.7427 9.17869 20.8382 11.1432L17.5803 14.2701C16.6962 13.4188 15.1411 12.4202 12.8 12.4202C8.70724 12.4202 5.36749 15.809 5.36749 20C5.36749 24.191 8.70724 27.5798 12.8 27.5798C17.5476 27.5798 19.3321 24.1582 19.6103 22.4065H12.8V18.2809H24.1288V18.281ZM35.7167 18.6833V15.2H32.2166V18.6833H28.7333V22.1834H32.2166V25.6667H35.7167V22.1834H39.2V18.6833H35.7167Z" fill="#FFC764"/>
</svg>
